<svg width="32" height="32" viewBox="0 0 32 32" fill="none" xmlns="http://www.w3.org/2000/svg">
<g clip-path="url(#clip0_1_20)">
<path d="M27.474 24.8587C26.9317 24.8591 26.4015 24.6986 25.9504 24.3976C25.4994 24.0967 25.1477 23.6687 24.9399 23.1678C24.7321 22.6669 24.6775 22.1157 24.7831 21.5838C24.8886 21.0519 25.1496 20.5632 25.5329 20.1796C25.9162 19.7961 26.4046 19.5348 26.9364 19.4288C27.4683 19.3229 28.0196 19.3771 28.5206 19.5845C29.0216 19.7919 29.4499 20.1433 29.7512 20.5941C30.0525 21.045 30.2133 21.5751 30.2133 22.1173C30.213 22.8439 29.9243 23.5407 29.4107 24.0547C28.8971 24.5686 28.2006 24.8578 27.474 24.8587ZM27.474 20.376C27.1295 20.3756 26.7926 20.4774 26.506 20.6685C26.2194 20.8596 25.9959 21.1314 25.8638 21.4496C25.7317 21.7677 25.6969 22.1179 25.7639 22.4558C25.8308 22.7937 25.9965 23.1042 26.24 23.3479C26.4834 23.5917 26.7937 23.7577 27.1315 23.8251C27.4694 23.8924 27.8196 23.8581 28.1379 23.7263C28.4562 23.5946 28.7283 23.3714 28.9197 23.085C29.1111 22.7986 29.2133 22.4618 29.2133 22.1173C29.2131 21.6559 29.0299 21.2134 28.7038 20.8869C28.3777 20.5605 27.9354 20.3767 27.474 20.376Z" fill="white"/>
<path d="M13.028 24.8587C12.4857 24.8592 11.9554 24.6989 11.5043 24.398C11.0531 24.0971 10.7013 23.6691 10.4934 23.1683C10.2855 22.6674 10.2309 22.1161 10.3363 21.5842C10.4418 21.0522 10.7027 20.5635 11.086 20.1799C11.4692 19.7962 11.9577 19.5349 12.4895 19.4289C13.0214 19.3229 13.5727 19.377 14.0738 19.5844C14.5748 19.7918 15.0031 20.1432 15.3045 20.5941C15.6058 21.0449 15.7667 21.575 15.7667 22.1173C15.7661 22.8438 15.4775 23.5403 14.9641 24.0542C14.4507 24.5681 13.7544 24.8574 13.028 24.8587ZM13.028 20.376C12.6835 20.3755 12.3466 20.4772 12.0598 20.6682C11.7731 20.8592 11.5495 21.131 11.4173 21.4491C11.2851 21.7673 11.2502 22.1175 11.3171 22.4554C11.384 22.7934 11.5497 23.1039 11.7931 23.3477C12.0365 23.5915 12.3468 23.7576 12.6846 23.825C13.0225 23.8924 13.3728 23.8581 13.6911 23.7264C14.0094 23.5947 14.2816 23.3715 14.473 23.085C14.6645 22.7986 14.7667 22.4619 14.7667 22.1173C14.7663 21.6561 14.5831 21.2138 14.2572 20.8874C13.9313 20.561 13.4893 20.3771 13.028 20.376Z" fill="white"/>
<path d="M31.0807 22.6173H29.7133C29.5807 22.6173 29.4536 22.5647 29.3598 22.4709C29.266 22.3771 29.2133 22.2499 29.2133 22.1173C29.2133 21.9847 29.266 21.8575 29.3598 21.7638C29.4536 21.67 29.5807 21.6173 29.7133 21.6173H30.9393V18.966C30.939 18.6075 30.8472 18.2551 30.6727 17.942L27.966 13.0893C27.9429 13.0479 27.9091 13.0134 27.8682 12.9894C27.8273 12.9654 27.7808 12.9527 27.7333 12.9527H24.0447V21.6193H25.2353C25.368 21.6193 25.4951 21.672 25.5889 21.7658C25.6827 21.8595 25.7353 21.9867 25.7353 22.1193C25.7353 22.2519 25.6827 22.3791 25.5889 22.4729C25.4951 22.5667 25.368 22.6193 25.2353 22.6193H23.5447C23.4121 22.6193 23.2849 22.5667 23.1911 22.4729C23.0974 22.3791 23.0447 22.2519 23.0447 22.1193V12.4527C23.0447 12.3201 23.0974 12.1929 23.1911 12.0991C23.2849 12.0053 23.4121 11.9527 23.5447 11.9527H27.7333C27.9589 11.9526 28.1804 12.0127 28.375 12.1268C28.5695 12.241 28.7301 12.405 28.84 12.602L31.546 17.4553C31.8033 17.9173 31.9384 18.4372 31.9387 18.966V21.7593C31.9383 21.9868 31.8478 22.2048 31.687 22.3656C31.5262 22.5265 31.3081 22.617 31.0807 22.6173Z" fill="white"/>
<path d="M10.7887 22.6173H5.99469C5.86208 22.6173 5.73491 22.5647 5.64114 22.4709C5.54737 22.3771 5.49469 22.2499 5.49469 22.1173V18.272C5.49469 18.1394 5.54737 18.0122 5.64114 17.9184C5.73491 17.8247 5.86208 17.772 5.99469 17.772C6.1273 17.772 6.25448 17.8247 6.34824 17.9184C6.44201 18.0122 6.49469 18.1394 6.49469 18.272V21.6173H10.7887C10.9213 21.6173 11.0485 21.67 11.1422 21.7638C11.236 21.8575 11.2887 21.9847 11.2887 22.1173C11.2887 22.2499 11.236 22.3771 11.1422 22.4709C11.0485 22.5647 10.9213 22.6173 10.7887 22.6173Z" fill="white"/>
<path d="M5.99469 16.498C5.86208 16.498 5.73491 16.4453 5.64114 16.3515C5.54737 16.2578 5.49469 16.1306 5.49469 15.998V12.6407C5.49469 12.508 5.54737 12.3809 5.64114 12.2871C5.73491 12.1933 5.86208 12.1407 5.99469 12.1407C6.1273 12.1407 6.25448 12.1933 6.34824 12.2871C6.44201 12.3809 6.49469 12.508 6.49469 12.6407V16C6.49416 16.1323 6.44125 16.2589 6.34754 16.3522C6.25383 16.4456 6.12695 16.498 5.99469 16.498Z" fill="white"/>
<path d="M23.5447 22.6173H15.2667C15.1341 22.6173 15.0069 22.5646 14.9131 22.4709C14.8194 22.3771 14.7667 22.2499 14.7667 22.1173C14.7667 21.9847 14.8194 21.8575 14.9131 21.7638C15.0069 21.67 15.1341 21.6173 15.2667 21.6173H23.0447V8.53665H6.49469V10.596C6.49469 10.7286 6.44201 10.8558 6.34824 10.9495C6.25448 11.0433 6.1273 11.096 5.99469 11.096C5.86208 11.096 5.73491 11.0433 5.64114 10.9495C5.54737 10.8558 5.49469 10.7286 5.49469 10.596V8.44465C5.49504 8.20383 5.59091 7.97298 5.76126 7.80275C5.93161 7.63253 6.16253 7.53683 6.40336 7.53665H23.1367C23.3774 7.537 23.6081 7.63278 23.7784 7.80299C23.9486 7.97319 24.0443 8.20394 24.0447 8.44465V22.1173C24.0447 22.2499 23.992 22.3771 23.8982 22.4709C23.8045 22.5646 23.6773 22.6173 23.5447 22.6173Z" fill="white"/>
<path d="M7.97131 18.772H1.62531C1.4927 18.772 1.36552 18.7193 1.27175 18.6256C1.17798 18.5318 1.12531 18.4046 1.12531 18.272C1.12531 18.1394 1.17798 18.0122 1.27175 17.9184C1.36552 17.8247 1.4927 17.772 1.62531 17.772H7.97131C8.10391 17.772 8.23109 17.8247 8.32486 17.9184C8.41863 18.0122 8.47131 18.1394 8.47131 18.272C8.47131 18.4046 8.41863 18.5318 8.32486 18.6256C8.23109 18.7193 8.10391 18.772 7.97131 18.772Z" fill="white"/>
<path d="M13.028 16.498H4.17267C4.04006 16.498 3.91288 16.4453 3.81912 16.3515C3.72535 16.2578 3.67267 16.1306 3.67267 15.998C3.67267 15.8654 3.72535 15.7382 3.81912 15.6444C3.91288 15.5507 4.04006 15.498 4.17267 15.498H13.028C13.1606 15.498 13.2878 15.5507 13.3816 15.6444C13.4753 15.7382 13.528 15.8654 13.528 15.998C13.528 16.1306 13.4753 16.2578 13.3816 16.3515C13.2878 16.4453 13.1606 16.498 13.028 16.498Z" fill="white"/>
<path d="M3.89733 13.858H0.439331C0.306723 13.858 0.179546 13.8053 0.0857777 13.7116C-0.00799053 13.6178 -0.0606689 13.4906 -0.0606689 13.358C-0.0606689 13.2254 -0.00799053 13.0982 0.0857777 13.0044C0.179546 12.9107 0.306723 12.858 0.439331 12.858H3.89733C4.02994 12.858 4.15712 12.9107 4.25088 13.0044C4.34465 13.0982 4.39733 13.2254 4.39733 13.358C4.39733 13.4906 4.34465 13.6178 4.25088 13.7116C4.15712 13.8053 4.02994 13.858 3.89733 13.858Z" fill="white"/>
<path d="M9.44201 11.096H3.33801C3.2054 11.096 3.07823 11.0433 2.98446 10.9496C2.89069 10.8558 2.83801 10.7286 2.83801 10.596C2.83801 10.4634 2.89069 10.3362 2.98446 10.2425C3.07823 10.1487 3.2054 10.096 3.33801 10.096H9.44201C9.57462 10.096 9.7018 10.1487 9.79557 10.2425C9.88933 10.3362 9.94201 10.4634 9.94201 10.596C9.94201 10.7286 9.88933 10.8558 9.79557 10.9496C9.7018 11.0433 9.57462 11.096 9.44201 11.096Z" fill="white"/>
</g>
<defs>
<clipPath id="clip0_1_20">
<rect width="32" height="32" fill="white"/>
</clipPath>
</defs>
</svg>
