<svg width="32" height="32" viewBox="0 0 32 32" fill="none" xmlns="http://www.w3.org/2000/svg">
<path d="M8.62781 20.0771C11.072 22.9952 14.0143 25.2928 17.3726 26.9185C18.6512 27.5237 20.3611 28.2417 22.2661 28.3647C22.3842 28.3699 22.4972 28.375 22.6153 28.375C23.8939 28.375 24.9209 27.934 25.7579 27.0262C25.763 27.0211 25.7733 27.0108 25.7784 27.0006C26.0762 26.6416 26.4151 26.3185 26.7695 25.9749C27.0108 25.7441 27.2573 25.5031 27.4935 25.2569C28.5872 24.1184 28.5872 22.6721 27.4832 21.5695L24.3971 18.4873C23.8734 17.9437 23.2469 17.6565 22.5896 17.6565C21.9324 17.6565 21.3008 17.9437 20.7616 18.4822L18.9233 20.3182C18.7539 20.2207 18.5793 20.1335 18.415 20.0515C18.2096 19.9489 18.0196 19.8515 17.8501 19.7438C16.1761 18.6822 14.6562 17.2975 13.203 15.5179C12.4687 14.5897 11.9758 13.8101 11.6317 13.0152C12.1144 12.5793 12.5663 12.1229 13.0028 11.6767C13.1568 11.5177 13.316 11.3587 13.4752 11.1998C14.0297 10.6459 14.3276 10.0048 14.3276 9.3535C14.3276 8.70219 14.0349 8.06113 13.4752 7.50725L11.945 5.97897C11.7652 5.79947 11.5958 5.6251 11.4212 5.44561C11.0823 5.09687 10.728 4.73788 10.3788 4.41478C9.84992 3.89681 9.2286 3.625 8.57133 3.625C7.91919 3.625 7.29273 3.89681 6.7433 4.41991L4.82284 6.33796C4.12449 7.03543 3.7291 7.88163 3.64695 8.86117C3.54938 10.0869 3.77532 11.3895 4.3607 12.9639C5.25931 15.4 6.61493 17.6616 8.62781 20.0771ZM4.89986 8.96887C4.96148 8.28678 5.22336 7.71752 5.71632 7.22519L7.6265 5.3174C7.92433 5.0302 8.25296 4.88148 8.57133 4.88148C8.88456 4.88148 9.20292 5.0302 9.49561 5.32765C9.83965 5.64562 10.1631 5.97897 10.5123 6.33283C10.6869 6.51233 10.8666 6.69183 11.0464 6.87645L12.5766 8.40473C12.8949 8.7227 13.0592 9.04579 13.0592 9.36376C13.0592 9.68172 12.8949 10.0048 12.5766 10.3228C12.4174 10.4818 12.2582 10.6459 12.099 10.8049C11.6215 11.2869 11.1747 11.7434 10.6818 12.1793C10.6715 12.1895 10.6664 12.1947 10.6561 12.2049C10.2299 12.6306 10.2967 13.0357 10.3994 13.3435C10.4045 13.3588 10.4096 13.3691 10.4148 13.3845C10.8101 14.3332 11.3596 15.2359 12.2171 16.3128C13.7576 18.2104 15.3802 19.6822 17.1672 20.8156C17.388 20.9592 17.6242 21.0721 17.845 21.1849C18.0504 21.2875 18.2404 21.3849 18.4098 21.4926C18.4304 21.5028 18.4458 21.5131 18.4663 21.5234C18.6358 21.6105 18.8001 21.6516 18.9644 21.6516C19.3752 21.6516 19.6422 21.39 19.7295 21.3028L21.6499 19.3848C21.9478 19.0873 22.2713 18.9284 22.5896 18.9284C22.9799 18.9284 23.2983 19.1694 23.4985 19.3848L26.5949 22.4721C27.2111 23.0875 27.2059 23.7542 26.5795 24.4056C26.3638 24.6363 26.1379 24.8569 25.8965 25.0876C25.5371 25.4364 25.1622 25.7954 24.8233 26.2005C24.2328 26.8365 23.5293 27.1339 22.6204 27.1339C22.5332 27.1339 22.4407 27.1288 22.3534 27.1237C20.6692 27.016 19.103 26.3595 17.9271 25.8005C14.7332 24.2568 11.9296 22.067 9.60344 19.2873C7.68812 16.9847 6.39926 14.841 5.54686 12.5434C5.01797 11.1331 4.81771 9.99969 4.89986 8.96887Z" fill="white"/>
</svg>
